<svg width="136" height="26" viewBox="0 0 136 26" fill="none" xmlns="http://www.w3.org/2000/svg">
<path d="M0.250664 25V0.699998H3.58066V25H0.250664ZM8.51207 25V0.699998H10.8221L17.7221 16.84V0.699998H20.5421V25H18.3821L11.3921 8.41V25H8.51207ZM31.4517 25.27C29.7317 25.27 28.3917 24.91 27.4317 24.19C26.4917 23.47 25.8317 22.5 25.4517 21.28C25.0917 20.06 24.9117 18.7 24.9117 17.2V8.62C24.9117 6.98 25.0917 5.55 25.4517 4.33C25.8317 3.11 26.4917 2.17 27.4317 1.51C28.3917 0.829999 29.7317 0.489999 31.4517 0.489999C32.9717 0.489999 34.1717 0.769999 35.0517 1.33C35.9517 1.89 36.5917 2.69 36.9717 3.73C37.3717 4.77 37.5717 6.02 37.5717 7.48V9.4H34.3617V7.69C34.3617 6.79 34.3117 6 34.2117 5.32C34.1317 4.62 33.8917 4.08 33.4917 3.7C33.0917 3.32 32.4217 3.13 31.4817 3.13C30.5217 3.13 29.8217 3.34 29.3817 3.76C28.9417 4.16 28.6517 4.74 28.5117 5.5C28.3917 6.24 28.3317 7.11 28.3317 8.11V17.74C28.3317 18.96 28.4317 19.93 28.6317 20.65C28.8317 21.35 29.1617 21.85 29.6217 22.15C30.0817 22.45 30.7017 22.6 31.4817 22.6C32.4017 22.6 33.0617 22.4 33.4617 22C33.8617 21.58 34.1117 21.01 34.2117 20.29C34.3117 19.57 34.3617 18.73 34.3617 17.77V15.97H37.5717V17.77C37.5717 19.25 37.3917 20.56 37.0317 21.7C36.6717 22.82 36.0517 23.7 35.1717 24.34C34.2917 24.96 33.0517 25.27 31.4517 25.27ZM41.8011 25V0.699998H46.6911C48.3111 0.699998 49.6511 0.919998 50.7111 1.36C51.7711 1.78 52.5511 2.47 53.0511 3.43C53.5711 4.37 53.8311 5.61 53.8311 7.15C53.8311 8.09 53.7311 8.95 53.5311 9.73C53.3311 10.49 53.0111 11.14 52.5711 11.68C52.1311 12.2 51.5511 12.58 50.8311 12.82L54.2811 25H51.0111L47.8311 13.6H45.1911V25H41.8011ZM45.1911 11.17H46.4811C47.4411 11.17 48.2211 11.05 48.8211 10.81C49.4211 10.57 49.8611 10.16 50.1411 9.58C50.4211 9 50.5611 8.19 50.5611 7.15C50.5611 5.73 50.3011 4.71 49.7811 4.09C49.2611 3.45 48.2311 3.13 46.6911 3.13H45.1911V11.17ZM58.3578 25V0.699998H67.7778V3.22H61.7478V11.26H66.6378V13.66H61.7478V22.57H67.8378V25H58.3578ZM71.5746 25V0.699998H76.8546C78.6546 0.699998 80.0746 0.979998 81.1146 1.54C82.1746 2.08 82.9246 2.9 83.3646 4C83.8246 5.1 84.0546 6.47 84.0546 8.11V17.05C84.0546 18.77 83.8246 20.22 83.3646 21.4C82.9246 22.58 82.1946 23.48 81.1746 24.1C80.1746 24.7 78.8246 25 77.1246 25H71.5746ZM74.9646 22.57H76.8846C78.1246 22.57 79.0046 22.33 79.5246 21.85C80.0446 21.37 80.3546 20.67 80.4546 19.75C80.5746 18.83 80.6346 17.72 80.6346 16.42V8.53C80.6346 7.27 80.5546 6.25 80.3946 5.47C80.2346 4.69 79.8846 4.12 79.3446 3.76C78.8046 3.4 77.9546 3.22 76.7946 3.22H74.9646V22.57ZM88.5749 25V0.699998H91.9049V25H88.5749ZM96.8363 25V0.699998H102.416C103.516 0.699998 104.466 0.819998 105.266 1.06C106.086 1.3 106.766 1.67 107.306 2.17C107.846 2.67 108.246 3.31 108.506 4.09C108.766 4.85 108.896 5.75 108.896 6.79C108.896 7.79 108.766 8.66 108.506 9.4C108.266 10.12 107.886 10.69 107.366 11.11C106.866 11.53 106.216 11.8 105.416 11.92C106.396 12.14 107.186 12.52 107.786 13.06C108.386 13.58 108.826 14.26 109.106 15.1C109.406 15.92 109.556 16.91 109.556 18.07C109.556 19.11 109.436 20.06 109.196 20.92C108.956 21.78 108.576 22.51 108.056 23.11C107.556 23.71 106.906 24.18 106.106 24.52C105.326 24.84 104.396 25 103.316 25H96.8363ZM100.226 22.57H102.506C104.026 22.57 105.036 22.22 105.536 21.52C106.056 20.8 106.316 19.65 106.316 18.07C106.316 17.05 106.176 16.2 105.896 15.52C105.636 14.82 105.206 14.3 104.606 13.96C104.026 13.6 103.236 13.42 102.236 13.42H100.226V22.57ZM100.226 10.84H102.236C103.196 10.84 103.946 10.71 104.486 10.45C105.026 10.17 105.406 9.73 105.626 9.13C105.846 8.53 105.956 7.75 105.956 6.79C105.956 5.67 105.786 4.86 105.446 4.36C105.106 3.86 104.576 3.55 103.856 3.43C103.136 3.29 102.196 3.22 101.036 3.22H100.226V10.84ZM113.569 25V0.699998H116.959V22.57H123.169V25H113.569ZM126.493 25V0.699998H135.913V3.22H129.883V11.26H134.773V13.66H129.883V22.57H135.973V25H126.493Z" fill="#CF404D"/>
</svg>
